# xmcd
#
# Track frame offsets:
#	150
#	6774
#	25574
#	56285
#	95395
#	117798
#	151443
#	183407
#	217676
#
# Disc length: 3473 seconds
#
# Revision: 0
# Processed by: cddbd v1.5.2PL0 Copyright (c) Steve Scherf et al.
# Submitted via: EasyCDDAExtractor 9.0.0.1
#
DISCID=5e0d8f09
DTITLE=Iron Maiden - Gigantium Aalborg 09-11-06 Disc 1
DYEAR=2006
DGENRE=Hard Rock
TTITLE0=Intro
TTITLE1=Different World
TTITLE2=These Colours Don't Run
TTITLE3=Brighter Than A Thousand Suns 
TTITLE4=The Pilgrim
TTITLE5=The Longest Day
TTITLE6=Out Of The Shadows
TTITLE7=The Reincarnation Of Benjamin Breeg
TTITLE8=For The Greater Good Of God
EXTD=
EXTT0=
EXTT1=
EXTT2=
EXTT3=
EXTT4=
EXTT5=
EXTT6=
EXTT7=
EXTT8=
PLAYORDER=
